<?xml version="1.0" encoding="iso-8859-1"?>
<!-- Generator: Adobe Illustrator 19.0.0, SVG Export Plug-In . SVG Version: 6.00 Build 0)  -->
<svg xmlns="http://www.w3.org/2000/svg" xmlns:xlink="http://www.w3.org/1999/xlink" version="1.1" id="Layer_1" x="0px" y="0px" viewBox="0 0 511.818 511.818" style="enable-background:new 0 0 511.818 511.818;" xml:space="preserve" width="512" height="512">
<path d="M497.059,108.472c-11.132-17.058-28.131-26.074-49.16-26.074c-15.584,0-31.736,4.5-48.007,13.374  c-3.637,1.983-4.977,6.539-2.994,10.176c1.983,3.636,6.538,4.978,10.175,2.993c14.043-7.659,27.779-11.542,40.826-11.542  c15.94,0,28.253,6.484,36.599,19.271c18.849,28.883,14.175,83.914-0.966,118.336c-5.843,13.284-5.843,28.522,0,41.806  c15.141,34.423,19.815,89.454,0.966,118.336c-8.345,12.788-20.659,19.271-36.599,19.271c-53.716,0-102.703-65.018-120.801-92.168  c3.881-4.52,6.525-9.92,7.728-15.744c0.773-3.743,0.742-7.5,0.742-11.297c17.099,7.447,41.121,16.214,70.81,22.732  c3.993,0.875,8.056-1.723,8.934-5.717c0.888-4.046-1.672-8.046-5.718-8.934c-32.255-7.081-57.486-16.893-74.025-24.518v-45.731  c16.539-7.625,41.769-17.436,74.026-24.517c4.045-0.888,6.605-4.888,5.717-8.934c-0.889-4.046-4.886-6.605-8.934-5.718  c-29.689,6.518-53.711,15.285-70.809,22.731c0-3.232,0.062-6.486-0.448-9.688c-0.997-6.256-3.805-12.442-8.025-17.356  c11.203-16.861,31.056-43.618,56.014-64.18c3.197-2.634,3.653-7.361,1.02-10.558c-2.634-3.196-7.36-3.654-10.558-1.02  c-26.023,21.439-46.635,48.998-58.453,66.684c-4.524-2.109-9.562-3.295-14.874-3.295h-88.668c-5.313,0-10.351,1.186-14.875,3.296  c-9.563-14.298-25.728-36.296-46.096-55.713c-29.498-28.121-58.663-42.379-86.685-42.379c-21.029,0-38.028,9.016-49.16,26.073  c-21.881,33.528-17.286,93.736-0.204,132.574c4.155,9.446,4.155,20.282,0,29.728c-17.083,38.838-21.677,99.046,0.204,132.574  c11.132,17.058,28.131,26.073,49.16,26.073c18.042,0,36.769-6.009,55.663-17.86c3.509-2.201,4.569-6.83,2.368-10.339  c-2.202-3.509-6.83-4.57-10.339-2.368c-16.468,10.33-32.515,15.567-47.692,15.567c-15.939,0-28.253-6.483-36.598-19.271  c-18.849-28.883-14.175-83.914,0.965-118.336c5.843-13.285,5.843-28.522,0-41.807c-15.141-34.423-19.814-89.454-0.965-118.337  c8.345-12.787,20.659-19.271,36.598-19.271c53.717,0,102.703,65.018,120.801,92.168c-3.881,4.521-6.525,9.922-7.728,15.746  c-0.777,3.711-0.741,7.523-0.741,11.295c-17.098-7.447-41.121-16.214-70.809-22.732c-4.049-0.89-8.045,1.672-8.934,5.718  c-0.888,4.045,1.672,8.045,5.717,8.934c32.257,7.081,57.487,16.893,74.026,24.518v45.73c-16.539,7.625-41.77,17.437-74.026,24.518  c-4.045,0.888-6.605,4.888-5.717,8.933c0.873,3.976,4.966,6.59,8.934,5.717c29.689-6.517,53.711-15.284,70.81-22.731  c0,3.805-0.033,7.551,0.742,11.298c1.203,5.824,3.848,11.226,7.73,15.746c-10.096,15.186-27.756,39.196-50.011,59.033  c-3.092,2.756-3.364,7.497-0.608,10.589c2.756,3.092,7.497,3.365,10.589,0.608c23.081-20.574,41.367-45.244,52.007-61.157  c4.524,2.109,9.562,3.295,14.874,3.295h88.668c5.313,0,10.351-1.186,14.875-3.296c9.563,14.298,25.729,36.296,46.096,55.713  c29.498,28.121,58.662,42.379,86.684,42.379c21.029,0,38.028-9.016,49.16-26.073c21.881-33.528,17.286-93.735,0.203-132.574  c-4.155-9.446-4.155-20.282,0-29.728C514.345,202.207,518.94,142,497.059,108.472z M211.575,319.624  c-10.944,0-20.324-9.21-20.324-20.324c0,0,0-86.74,0-86.782c0-11.041,9.295-20.323,20.324-20.323c0,0,88.632,0,88.668,0  c10.873,0,20.324,9.31,20.324,20.324V299.3c0,11.034-9.314,20.324-20.324,20.324C300.243,319.624,211.579,319.624,211.575,319.624z"/>















</svg>
