<svg xmlns="http://www.w3.org/2000/svg" viewBox="0 0 101 101">
  <title>Fichier 3</title>
  <g id="f4f836c0-0754-4542-873c-d61d8859e0b7" data-name="Calque 2">
    <g id="ffc571ea-fb48-458a-983e-c7d76f10ea33" data-name="Calque 1">
      <circle cx="50.5" cy="50.5" r="50" style="fill: #211e1d;stroke: #dbc4a2;stroke-miterlimit: 10"/>
      <g id="bdc2a86d-eb51-4bac-8808-e0a28f00df37" data-name="ab937001-acaf-417b-968b-1b13eecdee0c">
        <g id="b96d2b93-eb9e-47dd-b8af-03ade648532f" data-name="a423c07c-5231-4774-a8df-5c872506e141">
          <g>
            <g>
              <g>
                <line x1="28.59" y1="71.26" x2="70.87" y2="28.87" style="fill: none"/>
                <path d="M28.59,71.5a.25.25,0,0,1-.25-.24.29.29,0,0,1,.07-.18L70.7,28.7A.24.24,0,1,1,71,29h0L28.76,71.43A.23.23,0,0,1,28.59,71.5Z" style="fill: #fff"/>
              </g>
              <g>
                <line x1="28.53" y1="28.92" x2="70.92" y2="71.21" style="fill: none"/>
                <path d="M70.92,71.45a.22.22,0,0,1-.17-.07L28.36,29.1a.26.26,0,0,1,0-.35.24.24,0,0,1,.35,0L71.1,71a.25.25,0,0,1,0,.35.21.21,0,0,1-.17.07Z" style="fill: #fff"/>
              </g>
            </g>
            <path d="M32.75,42.31a5.77,5.77,0,0,1,2.58,2.14,6.52,6.52,0,0,1,0,6.61,5.74,5.74,0,0,1-2.58,2.15,9.58,9.58,0,0,1-3.94.75H24.88v5H21.64V41.56h7.17A9.58,9.58,0,0,1,32.75,42.31Zm-.88,8a3.55,3.55,0,0,0,0-5.12,5,5,0,0,0-3.21-.9H24.88v6.92h3.78a5,5,0,0,0,3.21-.9Z" style="fill: #fff"/>
            <path d="M83.65,42.31a5.74,5.74,0,0,1,2.59,2.14,5.88,5.88,0,0,1,.89,3.31,6.08,6.08,0,0,1-.89,3.3,5.76,5.76,0,0,1-2.59,2.15,9.55,9.55,0,0,1-3.94.75H75.77v5H72.54V41.56h7.17A9.58,9.58,0,0,1,83.65,42.31Zm-.88,8a3.53,3.53,0,0,0,0-5.12,5,5,0,0,0-3.21-.9H75.78v6.92h3.78A5,5,0,0,0,82.77,50.32Z" style="fill: #fff"/>
            <polygon points="73.63 44.72 73.63 41.51 62.94 41.51 62.94 59.19 66.22 59.19 66.22 53.98 69.77 53.98 69.77 50.98 66.22 50.98 66.22 44.72 73.63 44.72" style="fill: #fff"/>
            <g id="b5e9970b-ded2-47a2-ba45-c6a816b4b3a6" data-name="ba1cd37f-e1dd-49ae-be42-d50b407b6dac">
              <g id="fb68964f-63cf-4c2b-ba33-40742fa29564" data-name="a6f5f742-b44a-4e4a-93b1-e8f9f5b383c0">
                <g>
                  <path d="M50.56,71.39h-1.9a.65.65,0,0,1-.65-.64V68.4a.64.64,0,0,1,.65-.64h1.9a.64.64,0,0,1,.65.64v2.35A.65.65,0,0,1,50.56,71.39Zm-1.9-3.11a.12.12,0,0,0-.12.12v2.35a.12.12,0,0,0,.12.12h1.9a.13.13,0,0,0,.13-.12V68.4a.12.12,0,0,0-.13-.12Z" style="fill: #fff"/>
                  <path d="M55.61,73.32a4.09,4.09,0,0,1-1-.16,4.64,4.64,0,0,1-2.75-1.42,2,2,0,0,1-.27-1v-.08a.26.26,0,0,1,.52,0h0a.25.25,0,0,0,0,.08,1.58,1.58,0,0,0,.17.72,4.21,4.21,0,0,0,2.46,1.22,1.85,1.85,0,0,0,1.15.09c.48-.24.73-.79.74-1.64V71l0-2.92v0c0-.83-.24-1.36-.69-1.56a2.64,2.64,0,0,0-2,.33c-.36.16-1.54.74-1.72,1.7a.27.27,0,0,1-.29.23.26.26,0,0,1-.23-.29v0a3.35,3.35,0,0,1,2-2.08A3.05,3.05,0,0,1,56.13,66c.45.2,1,.71,1,2v0l0,3v.06a3.89,3.89,0,0,1-.12,1,1.78,1.78,0,0,1-.9,1.15A1.24,1.24,0,0,1,55.61,73.32Z" style="fill: #fff"/>
                  <path d="M43.6,73.42a1.08,1.08,0,0,1-.53-.11,1.76,1.76,0,0,1-.9-1.14,3.53,3.53,0,0,1-.12-1v-.07l0-2.94v0c0-1.32.56-1.83,1-2a3.26,3.26,0,0,1,2.69.43c.9.52,1.92,1.12,1.84,2.15a.27.27,0,0,1-.27.26.27.27,0,0,1-.26-.27v0c.06-.64-.62-1.09-1.58-1.65a2.78,2.78,0,0,0-2.21-.4c-.45.2-.69.74-.7,1.56v0l0,2.92v.07c0,.85.24,1.4.74,1.64a1.85,1.85,0,0,0,1.15-.09,4.15,4.15,0,0,0,2.46-1.22,1.69,1.69,0,0,0,.17-.72.19.19,0,0,1,0-.08.26.26,0,0,1,.28-.24.27.27,0,0,1,.24.28h0v.08a2.11,2.11,0,0,1-.27,1,4.64,4.64,0,0,1-2.75,1.42A4.18,4.18,0,0,1,43.6,73.42Z" style="fill: #fff"/>
                  <path d="M52,69.52h-.31a.26.26,0,0,1,0-.52,3.17,3.17,0,0,0,2.19-.64.26.26,0,1,1,.32.42h0a3.68,3.68,0,0,1-2.24.75Z" style="fill: #fff"/>
                  <path d="M53.53,70.8a.27.27,0,0,1-.17-.06,2,2,0,0,0-.65-.34,2.25,2.25,0,0,0-1-.08.26.26,0,0,1-.09-.51h0a2.64,2.64,0,0,1,1.28.09,2.58,2.58,0,0,1,.82.43.27.27,0,0,1,0,.37.26.26,0,0,1-.2.1Z" style="fill: #fff"/>
                  <g>
                    <path d="M47.19,69.57A3.69,3.69,0,0,1,45,68.81a.26.26,0,0,1,.29-.43h0a3.08,3.08,0,0,0,1,.52,3.21,3.21,0,0,0,1.16.13.25.25,0,0,1,.3.2.26.26,0,0,1-.2.31H47.5A1.67,1.67,0,0,1,47.19,69.57Z" style="fill: #fff"/>
                    <path d="M45.61,70.85a.26.26,0,0,1-.26-.26.28.28,0,0,1,.1-.21,2.82,2.82,0,0,1,.82-.44,2.61,2.61,0,0,1,1.27-.08.26.26,0,1,1-.08.51,2.24,2.24,0,0,0-1,.07,2.32,2.32,0,0,0-.66.35A.23.23,0,0,1,45.61,70.85Z" style="fill: #fff"/>
                  </g>
                </g>
              </g>
            </g>
            <g>
              <path d="M49.87,35.86a2.55,2.55,0,0,1-.86-.15,2.51,2.51,0,0,1-1.4-1.45A3,3,0,0,1,47.55,33l.74.11a2.15,2.15,0,0,0,0,.91,1.72,1.72,0,0,0,1,1,1.68,1.68,0,0,0,1,0,1.72,1.72,0,0,0,1.19-1.29,1.54,1.54,0,0,0,0-.74l.71-.19a2.28,2.28,0,0,1,0,1.07,2.44,2.44,0,0,1-1.71,1.86A2.37,2.37,0,0,1,49.87,35.86Z" style="fill: #fff"/>
              <g>
                <path d="M49.51,33.54A13.25,13.25,0,0,1,48,33.45c-1.54-.22-2.32-.56-2.68-1.2A1.54,1.54,0,0,1,45.13,31c.09-.27.35-.65,1.46-1.05a8.14,8.14,0,0,1,1.61-.43l.2,0,.13.15a1.44,1.44,0,0,1,.34.6,1.8,1.8,0,0,1,.09.65,2.19,2.19,0,0,0,.95.13c.24,0,.71-.07.89-.35,0-.06,0-.08.05-.21a1.79,1.79,0,0,1,.07-.51,2.13,2.13,0,0,1,.14-.35l.11-.22.25,0a3.21,3.21,0,0,1,2.69,1.15,1.51,1.51,0,0,1,.24,1.25,1.44,1.44,0,0,1-.74.82A8.6,8.6,0,0,1,49.51,33.54ZM48.1,30.33a7.84,7.84,0,0,0-1.26.35c-.58.21-1,.44-1,.61a.77.77,0,0,0,.11.59c.15.28.54.61,2.14.83,0,0,3.22.43,5.18-.69a.77.77,0,0,0,.39-.4.76.76,0,0,0-.16-.64h0a2.38,2.38,0,0,0-1.85-.78,1.24,1.24,0,0,0,0,.33,1.1,1.1,0,0,1-.17.59,1.85,1.85,0,0,1-1.44.67,2.89,2.89,0,0,1-1.56-.29l-.25-.12,0-.27a1.3,1.3,0,0,0,0-.62,1.11,1.11,0,0,0-.07-.16Z" style="fill: #fff"/>
                <path d="M48,30.17a2.27,2.27,0,0,0-.22-.22,4.64,4.64,0,0,1-.49-.5A4.41,4.41,0,0,1,46.2,27.4a3.35,3.35,0,0,1-.05-.95,3.54,3.54,0,0,1,.62-1.81,3.61,3.61,0,0,1,6.49,2.91,4.58,4.58,0,0,1-.84,1.56c-.14.18-.26.32-.37.44a2.29,2.29,0,0,0-.32.43l-.67-.35a3,3,0,0,1,.43-.58,3.51,3.51,0,0,0,.34-.39,3.88,3.88,0,0,0,.71-1.31,2.88,2.88,0,0,0-.24-2,3,3,0,0,0-1.86-1.4,3,3,0,0,0-3.07,1.14,2.93,2.93,0,0,0-.5,1.43,3.29,3.29,0,0,0,.05.77,3.68,3.68,0,0,0,.9,1.7,4.57,4.57,0,0,0,.43.45,2.37,2.37,0,0,1,.28.27Z" style="fill: #fff"/>
              </g>
            </g>
            <g>
              <path d="M17.87,23.61a.14.14,0,0,1,0-.07c.49-.61.49-.61,1.2-.27l2.28,1.11a2.91,2.91,0,0,0-.12-.39c-.37-.75-.76-1.49-1.13-2.25-.09-.18-.13-.38.06-.52a.45.45,0,0,1,.32-.06c.76.33,1.51.68,2.26,1a1.29,1.29,0,0,0,.51.14c-.13-.24-.23-.49-.36-.74-.29-.55-.57-1.1-.89-1.64a.48.48,0,0,1,.13-.74c.09-.07.18-.16.32-.29.12.23.25.42.35.63.52,1.08,1,2.17,1.57,3.25.09.2.13.35,0,.52a.53.53,0,0,1-.63.17l-2.09-.94-.18-.06a1.47,1.47,0,0,0,.08.28c.3.63.6,1.27.91,1.9a.47.47,0,0,1-.07.65.45.45,0,0,1-.61.1c-1.23-.58-2.46-1.12-3.7-1.68Z" style="fill: #fff"/>
              <path d="M38.25,12.12c.09.37.15.68.23,1,.13.49.28,1,.41,1.48,0,.19,0,.28-.22.34s-.45.18-.56-.13-.25-.77-.36-1.16c-.19-.68-.37-1.35-.56-2a5.61,5.61,0,0,1-.13-.59c-.05-.26.17-.43.47-.3a5.74,5.74,0,0,1,1.1.64c.6.41,1.18.86,1.76,1.29l.27.14c-.15-.58-.28-1.07-.42-1.57-.09-.33-.19-.66-.28-1,0-.14,0-.26.18-.29s.37-.09.58-.14c.22.78.43,1.52.62,2.26.15.54.28,1.09.4,1.63,0,.13,0,.36,0,.39a.64.64,0,0,1-.5,0c-.51-.3-1-.63-1.47-1l-1.3-.93Z" style="fill: #fff"/>
              <path d="M59.32,14.52l-1.58-.35-.5-.14a.24.24,0,0,1-.17-.33c.12-.51.23-1,.36-1.54.17-.67.37-1.34.54-2,.12-.42.13-.45.57-.36a5.49,5.49,0,0,1,2,.69,1.94,1.94,0,0,1,.82,2.1,2.18,2.18,0,0,1-1.19,1.68A4.35,4.35,0,0,1,59.32,14.52ZM58,13.37l.85.24a1.28,1.28,0,0,0,1.63-.83A1.33,1.33,0,0,0,59.91,11a9.15,9.15,0,0,0-.93-.29c-.19-.06-.3,0-.35.21C58.44,11.73,58.23,12.53,58,13.37Z" style="fill: #fff"/>
              <path d="M32,13.69l.44.88,1.66-.75.17-.08c.21-.14.36-.16.5.13s.08.44-.19.57c-.5.23-1,.49-1.49.71-.25.11-.32.22-.18.49.28.56.27.57.83.32s.92-.4,1.36-.63c.24-.12.36-.08.48.15.22.43.23.42-.2.62-.74.34-1.49.67-2.22,1-.31.16-.44.06-.56-.2-.46-1-.93-2-1.39-3a0,0,0,0,0,0,0c-.28-.64-.28-.64.34-.94l2-.94c.21-.1.39-.12.51.14s.09.48-.17.61l-1.59.74C32.24,13.57,32.15,13.63,32,13.69Z" style="fill: #fff"/>
              <path d="M81.26,23.56l0,.07c-.6.61-.56.45-1,0l-1-1.14c-.15-.18-.27-.17-.43,0-.55.53-.6.37-.07,1l.93,1.07c.15.15.17.28,0,.43s-.31.29-.52.07L78,23.81a4.15,4.15,0,0,1-.24-.34l-.63.57c-.14.12-.06.23,0,.34l1.25,1.36c.12.14.28.25.06.45s-.44.36-.66.12c-.6-.65-1.18-1.31-1.77-2a.27.27,0,0,1,0-.46l2.82-2.58c.13-.11.22-.14.34,0l2,2.17A.36.36,0,0,1,81.26,23.56Z" style="fill: #fff"/>
              <path d="M54.85,13.49c-.61.14-.8.06-1-.47a.54.54,0,0,0-.53-.41c-.5,0-1-.07-1.49-.14a.52.52,0,0,0-.62.35.65.65,0,0,1-.76.44c-.28,0-.33-.12-.19-.38.64-1.2,1.3-2.41,1.92-3.62.19-.35.48-.29.77-.28a.53.53,0,0,1,.49.43c.44,1.27.9,2.53,1.35,3.8A2.74,2.74,0,0,1,54.85,13.49Zm-1.44-1.67-.6-1.75h-.1l-.78,1.49s.08.15.13.16Z" style="fill: #fff"/>
              <path d="M24.88,17.07c.7-.53.56-.6,1.08.14.17.25.32.5.51.73a.31.31,0,0,0,.29.06c.5-.31,1-.64,1.45-1a.36.36,0,0,0,0-.32c-.21-.36-.44-.71-.69-1.06s-.05-.36.14-.5.37-.16.52.06l1.74,2.49c.15.21.28.43.43.64s-.11.41-.27.56-.29.11-.42-.08c-.22-.35-.46-.68-.71-1-.05-.06-.21-.14-.25-.11-.57.35-1.11.72-1.7,1.11.29.42.56.79.81,1.17.1.15.25.28,0,.45-.44.3-.45.33-.64.05-.74-1.05-1.48-2.12-2.21-3.18A1.8,1.8,0,0,1,24.88,17.07Z" style="fill: #fff"/>
              <path d="M65,15.34l.27-.23c.68-.67,1.35-1.35,2-2a.74.74,0,0,1,.93.12c0,.06,0,.19-.1.25L65.52,16l-.32.29c-.15.14-.26.36-.54.24s-.63-.27-.6-.73c.08-1.39.15-2.78.22-4.18a.61.61,0,0,1,0-.12l.57.27A.36.36,0,0,1,65,12c0,.79,0,1.58-.07,2.37,0,.31,0,.61-.07.91Z" style="fill: #fff"/>
              <path d="M76.47,19.55a.87.87,0,0,1-.37.06.41.41,0,0,1-.3-.21,1.85,1.85,0,0,0-1.41-1.1,1.66,1.66,0,0,0-1.6,1.23,1.49,1.49,0,0,0,.83,1.65,4,4,0,0,0,.67.21.59.59,0,0,1,.29.62c-.08.25-.29.21-.49.18A2.6,2.6,0,0,1,72,20.43a2,2,0,0,1,.32-1.88,2.26,2.26,0,0,1,1.88-1.05A2.35,2.35,0,0,1,76.46,19,1.55,1.55,0,0,1,76.47,19.55Z" style="fill: #fff"/>
              <path d="M71.3,15.1a1.27,1.27,0,0,1-.12.23c-.65,1.09-1.29,2.18-1.94,3.26-.1.16-.19.2-.37.09-.45-.27-.47-.29-.21-.74l1.82-3c.07-.11.23-.25.31-.23a1.8,1.8,0,0,1,.49.3A.41.41,0,0,1,71.3,15.1Z" style="fill: #fff"/>
            </g>
            <g>
              <path d="M26,79.19a1.05,1.05,0,0,1,.77,1.11l.06,1.45a2.21,2.21,0,0,0,.05.25c.4-.12.78-.22,1.15-.34s.55-.21.84-.29.55.23.76.43,0,.34-.1.49l-2.12,2.95c-.12.18-.23.22-.42.09-.45-.29-.45-.31-.13-.75.48-.66,1-1.33,1.42-2l-.05-.09-.74.19-1.1.34c-.2.07-.31,0-.35-.18a2.73,2.73,0,0,1-.06-.49c0-.51,0-1,0-1.53l-.09,0a1.86,1.86,0,0,0-.22.27c-.45.61-.89,1.23-1.35,1.84a.42.42,0,0,1-.77-.09.27.27,0,0,1,0-.25c.8-1.11,1.6-2.22,2.41-3.32Z" style="fill: #fff"/>
              <path d="M73.34,84.52c-.63.53-.63.54-1,0-.68-.92-1.36-1.85-2-2.79-.07-.1-.17-.3-.14-.33a.85.85,0,0,1,.48-.28,3.4,3.4,0,0,1,.89.16l2.34.63a.86.86,0,0,0,.32,0c-.28-.38-.51-.71-.74-1l-.72-1c-.2-.26,0-.37.16-.51s.33-.19.49,0c.77,1,1.55,2.1,2.31,3.15,0,.07,0,.25,0,.28s-.38.26-.56.24A6.94,6.94,0,0,1,74,82.8L72,82.26l-.25,0C72.27,83,72.8,83.77,73.34,84.52Z" style="fill: #fff"/>
              <path d="M33,88.5l-.66-.29c-.67-.33-1.34-.69-2-1-.25-.11-.25-.24-.15-.43.56-1.13,1.14-2.25,1.68-3.38.14-.27.29-.24.5-.14l2.12,1,.11.06c.12.09.34.19.33.26a1.44,1.44,0,0,1-.25.55s-.21,0-.3,0c-.57-.27-1.13-.53-1.68-.81-.21-.11-.33-.08-.44.14-.39.7-.29.61.24.88s.87.45,1.31.66c.22.11.3.23.18.46s-.23.37-.51.23c-.52-.26-1.06-.48-1.58-.75-.23-.12-.37-.07-.45.16a1.73,1.73,0,0,1-.16.37c-.11.18,0,.26.13.33l1.7.85c.15.07.27.17.19.36S33.08,88.34,33,88.5Z" style="fill: #fff"/>
              <path d="M35.83,89.59l1.27-3.94c.06-.2.17-.25.37-.19.82.27,1.65.53,2.48.78.24.08.37.2.29.47s-.23.41-.52.32l-1.67-.53c-.23-.07-.4,0-.46.24s-.1.39-.16.63l1.55.49a3.26,3.26,0,0,1,.44.15c.13.07.29.16.21.38s-.13.38-.4.31c-.53-.15-1-.3-1.59-.43-.15,0-.44-.06-.47,0A2.57,2.57,0,0,0,37,89s.12.1.19.12c.59.2,1.18.4,1.78.58.24.07.3.21.21.44-.14.4-.2.43-.48.34l-2.48-.77A3.6,3.6,0,0,1,35.83,89.59Z" style="fill: #fff"/>
              <path d="M49.54,87.35a2,2,0,0,1,1.53.6c.23.24.21.41-.11.47a1.09,1.09,0,0,1-.64-.1A1.42,1.42,0,0,0,49,88.23a.61.61,0,0,0-.29.45c0,.12.2.31.34.36.45.14.91.23,1.36.35a1.2,1.2,0,0,1,1,1.19A1.39,1.39,0,0,1,50.25,92a3.59,3.59,0,0,1-1.46,0,1.66,1.66,0,0,1-1-.69c-.09-.12-.24-.28,0-.42s.41-.33.63-.08a1.59,1.59,0,0,0,1.49.49,1.06,1.06,0,0,0,.42-.15.49.49,0,0,0,0-.89,11.48,11.48,0,0,0-1.18-.35,3.58,3.58,0,0,1-.63-.21,1.08,1.08,0,0,1-.59-1.1,1.17,1.17,0,0,1,.81-1A2.44,2.44,0,0,1,49.54,87.35Z" style="fill: #fff"/>
              <path d="M67.49,87.87a1.69,1.69,0,0,1-1.58-.8c-.44-.78-.86-1.58-1.27-2.38-.17-.31.1-.36.3-.47s.31-.13.43.12q.52,1.06,1.08,2.1A1,1,0,0,0,68,86.9a1,1,0,0,0,.41-1.47c-.31-.66-.64-1.33-1-2a.41.41,0,0,1,.42-.63.28.28,0,0,1,.18.12,10.58,10.58,0,0,1,1.31,2.86,1.65,1.65,0,0,1-.86,1.7A4.9,4.9,0,0,1,67.49,87.87Z" style="fill: #fff"/>
              <path d="M62.44,85.21c.36.51.29.77-.22.93l-1.46.46c-.18.06-.26.15-.17.35s.12.32.17.49c.15.47.16.39.57.28s.87-.28,1.31-.42a.48.48,0,0,1,.57.36.74.74,0,0,1,0,.21c0,.06-.12.1-.18.12l-1.88.63q.23.78.45,1.53l-.13.06c-.61.26-.63.25-.82-.38-.34-1-.68-2.09-1-3.15-.12-.35-.08-.48.27-.6C60.74,85.78,61.59,85.5,62.44,85.21Z" style="fill: #fff"/>
              <path d="M43.72,91.48h-.34c-.34,0-.39-.11-.35-.44.09-.69.17-1.38.26-2.07,0-.33.09-.66.14-1,0-.14,0-.23-.17-.26-.37-.06-.74-.14-1.13-.22v-.3c0-.33.16-.42.49-.38.79.13,1.58.23,2.37.35a3.19,3.19,0,0,1,.6.12c.1,0,.22.2.21.27s0,.43-.25.42a4.09,4.09,0,0,1-.85-.09c-.23,0-.38,0-.42.24s-.11.67-.16,1C44,89.77,44,90.4,43.86,91A2.59,2.59,0,0,1,43.72,91.48Z" style="fill: #fff"/>
            </g>
          </g>
        </g>
      </g>
    </g>
  </g>
</svg>
