<svg xmlns="http://www.w3.org/2000/svg" viewBox="0 0 563.1 675.3">
  <title>logo-grey</title>
  <g id="aace76d3-ce62-40f6-b51c-f1225fd8fe57" data-name="Calque 2">
    <g id="b1da1b26-e59f-4ffb-9e69-a1ee8bd64c68" data-name="Calque 1">
      <g>
        <g>
          <g>
            <line x1="87.15" y1="506.41" x2="430.93" y2="161.79" style="fill: #d9d9d9"/>
            <path d="M87.15,508.41A2,2,0,0,1,85.73,505L429.52,160.38a2,2,0,0,1,2.83,2.83L88.56,507.82A2,2,0,0,1,87.15,508.41Z" style="fill: #d9d9d9"/>
          </g>
          <g>
            <line x1="86.73" y1="162.21" x2="431.34" y2="505.99" style="fill: #d9d9d9"/>
            <path d="M431.34,508a2,2,0,0,1-1.41-.58L85.32,163.62a2,2,0,1,1,2.83-2.83L432.76,504.58a2,2,0,0,1-1.42,3.41Z" style="fill: #d9d9d9"/>
          </g>
        </g>
        <path d="M121,271.05q13.67,6.07,21,17.4t7.28,26.92q0,15.38-7.28,26.81t-21,17.51q-13.65,6.06-32.07,6.07H57v40.87H30.66V265H88.94Q107.35,265,121,271.05Zm-7.18,65.16q8.9-7.29,8.9-20.84t-8.9-20.85q-8.91-7.27-26.11-7.28H57V343.5H87.72Q104.93,343.5,113.83,336.21Z" style="fill: #d9d9d9"/>
        <path d="M534.87,271.05q13.67,6.07,21,17.4t7.28,26.92q0,15.38-7.28,26.81t-21,17.51q-13.65,6.06-32.07,6.07h-32v40.87H444.52V265H502.8Q521.21,265,534.87,271.05Zm-7.18,65.16q8.91-7.29,8.9-20.84t-8.9-20.85q-8.91-7.27-26.1-7.28H470.83V343.5h30.76Q518.78,343.5,527.69,336.21Z" style="fill: #d9d9d9"/>
        <polygon points="453.33 290.68 453.33 264.57 366.49 264.57 366.49 408.3 393.15 408.3 393.15 365.98 422 365.98 422 341.52 393.15 341.52 393.15 290.68 453.33 290.68" style="fill: #d9d9d9"/>
        <g id="b372a4e8-f8e0-410a-abf6-4e16b9586ea2" data-name="aae8df06-4d69-40d9-8667-6caf3565fcd5">
          <g id="a1b52ab7-aa49-486d-982d-43c6814fc105" data-name="ba69deef-3db9-40eb-9ad7-c3d755a9c895">
            <g>
              <path d="M265.83,507.49H250.34a5.25,5.25,0,0,1-5.24-5.24V483.18a5.24,5.24,0,0,1,5.25-5.24h15.49a5.25,5.25,0,0,1,5.24,5.24v19.07A5.25,5.25,0,0,1,265.83,507.49Zm-15.48-25.3a1,1,0,0,0-1,1v19.07a1,1,0,0,0,1,1h15.49a1,1,0,0,0,1-1V483.18a1,1,0,0,0-1-1Z" style="fill: #d9d9d9"/>
              <path d="M306.86,523.19a33,33,0,0,1-8-1.32c-8.11-2.14-17.3-4.56-22.34-11.53-1.75-2.43-2-6.1-2.17-8.07,0-.23,0-.44,0-.61a2.12,2.12,0,0,1,4.23-.39h0c0,.19,0,.42.06.68.11,1.44.33,4.44,1.38,5.89,4.14,5.74,12.18,7.86,20,9.91,4.91,1.29,7.8,1.51,9.38.73,3.9-1.94,5.9-6.43,6-13.36,0-.24,0-.42,0-.57L315,480.81c0-.11,0-.24,0-.43-.07-6.69-2-11.06-5.65-12.66-5.08-2.23-11.09.4-16.39,2.73-2.9,1.27-12.51,6-14,13.79a2.13,2.13,0,1,1-4.2-.69l0-.13c1.85-9.52,12.15-15,16.49-16.87,5.8-2.55,13-5.71,19.8-2.73,3.68,1.62,8.08,5.79,8.2,16.5v.39l.29,24v.49a28.5,28.5,0,0,1-1,7.83c-1.3,4.4-3.75,7.53-7.3,9.3A9.39,9.39,0,0,1,306.86,523.19Z" style="fill: #d9d9d9"/>
              <path d="M209.21,524a9.48,9.48,0,0,1-4.31-.89c-3.55-1.76-6-4.89-7.3-9.3a28.5,28.5,0,0,1-1-7.83v-.59l.28-23.93v-.32c.12-10.7,4.52-14.88,8.19-16.5,6.68-2.94,15.95,0,21.87,3.49,7.32,4.27,15.62,9.11,14.94,17.45a2.13,2.13,0,1,1-4.25-.22s0-.08,0-.12c.43-5.26-5.05-8.88-12.85-13.43-5.43-3.17-13.11-5.41-18-3.27-3.63,1.6-5.58,6-5.66,12.65,0,.19,0,.33,0,.44l-.29,23.74c0,.15,0,.33,0,.57,0,6.93,2,11.42,6,13.36,1.58.78,4.47.56,9.38-.74,7.78-2,15.82-4.16,20-9.9,1-1.45,1.27-4.45,1.37-5.89,0-.26,0-.49.06-.68a2.12,2.12,0,0,1,4.23.39c0,.17,0,.38,0,.61-.15,2-.42,5.64-2.17,8.07-5,7-14.23,9.39-22.34,11.52A32.56,32.56,0,0,1,209.21,524Z" style="fill: #d9d9d9"/>
              <path d="M277.1,492.31c-.84,0-1.69,0-2.53-.11a2.13,2.13,0,0,1,.36-4.24,25.78,25.78,0,0,0,17.8-5.19,2.13,2.13,0,0,1,2.59,3.39h0a30,30,0,0,1-18.22,6.15Z" style="fill: #d9d9d9"/>
              <path d="M289.91,502.69a2.12,2.12,0,0,1-1.31-.45,17.25,17.25,0,0,0-5.34-2.83,17.72,17.72,0,0,0-8.34-.59,2.13,2.13,0,1,1-.71-4.2h0a22,22,0,0,1,10.37.73,21.56,21.56,0,0,1,6.64,3.53,2.13,2.13,0,0,1-1.31,3.81Z" style="fill: #d9d9d9"/>
              <g>
                <path d="M238.38,492.69a30,30,0,0,1-18.2-6.15,2.13,2.13,0,1,1,2.52-3.43l.05,0a25.5,25.5,0,0,0,8.38,4.24,25.92,25.92,0,0,0,9.43,1,2.13,2.13,0,1,1,.6,4.21l-.25,0C240.07,492.66,239.22,492.69,238.38,492.69Z" style="fill: #d9d9d9"/>
                <path d="M225.58,503.07a2.12,2.12,0,0,1-1.31-3.8,21.56,21.56,0,0,1,6.64-3.53,22,22,0,0,1,10.37-.73,2.13,2.13,0,0,1-.72,4.2,17.6,17.6,0,0,0-8.34.58,17.25,17.25,0,0,0-5.34,2.83A2.11,2.11,0,0,1,225.58,503.07Z" style="fill: #d9d9d9"/>
              </g>
            </g>
          </g>
        </g>
        <g>
          <path d="M260.23,218.65a19.6,19.6,0,0,1-7-1.28c-1.43-.55-8.68-3.68-11.39-11.74-1.17-3.48-.8-7.85-.47-10.15l5.94.85a17.44,17.44,0,0,0,.22,7.39,14,14,0,0,0,7.84,8.05,13.69,13.69,0,0,0,8.46.37,14,14,0,0,0,9.7-10.52,13.34,13.34,0,0,0-.23-6l5.79-1.53a18.92,18.92,0,0,1,.32,8.68,19.91,19.91,0,0,1-13.93,15.12A18.94,18.94,0,0,1,260.23,218.65Z" style="fill: #d9d9d9"/>
          <g>
            <path d="M257.29,199.73a98.08,98.08,0,0,1-12.53-.74c-12.56-1.72-18.88-4.54-21.81-9.74-1.09-1.92-2.71-5.76-1.32-9.78.78-2.26,2.84-5.29,11.87-8.61a67.22,67.22,0,0,1,13.15-3.44l1.6-.24,1.08,1.21a12.53,12.53,0,0,1,2.77,4.89,16.12,16.12,0,0,1,.72,5.29,17.41,17.41,0,0,0,7.66,1c2-.2,5.82-.58,7.28-2.79.31-.48.33-.68.37-1.7a16.41,16.41,0,0,1,.62-4.2,14.82,14.82,0,0,1,1.12-2.85l.9-1.75,2,.14c11.28.77,18.43,3.82,21.87,9.33,2.81,4.5,2.63,8,2,10.15-1.2,4-4.78,6-6,6.68C280.35,198.46,267,199.73,257.29,199.73Zm-11.51-26.08a62.72,62.72,0,0,0-10.2,2.84c-4.72,1.73-7.81,3.58-8.28,4.94-.65,1.86.4,4,.87,4.87,1.24,2.2,4.34,4.95,17.4,6.75.26,0,26.14,3.44,42.07-5.68,1.84-1.05,2.86-2.07,3.2-3.21.29-1,.3-2.64-1.32-5.24h0c-2.12-3.39-7.17-5.52-15-6.33a11.22,11.22,0,0,0-.38,2.73,8.37,8.37,0,0,1-1.35,4.76c-3,4.59-8.88,5.18-11.69,5.46a23.89,23.89,0,0,1-12.73-2.34l-2-1,.33-2.2a11,11,0,0,0-.31-5A7,7,0,0,0,245.78,173.65Z" style="fill: #d9d9d9"/>
            <path d="M244.86,172.39c-.5-.56-1.12-1.13-1.83-1.79a49.14,49.14,0,0,1-4-4.08,35.64,35.64,0,0,1-8.66-16.65,30.34,30.34,0,0,1-.46-7.79A29.12,29.12,0,0,1,235,127.39a29.51,29.51,0,0,1,16.82-11.49,30.13,30.13,0,0,1,14.52-.15c3.89,1,13.52,4.25,19,14.41.91,1.7,5.31,10.7,2.44,20.91-1.68,6-5.56,11.05-6.83,12.7-1.13,1.47-2.14,2.59-3,3.58a16.85,16.85,0,0,0-2.65,3.44L269.87,168a22.05,22.05,0,0,1,3.53-4.71c.86-.94,1.74-1.92,2.73-3.21a33.44,33.44,0,0,0,5.81-10.66c2.29-8.17-1.52-15.63-2-16.46-4.43-8.25-12.68-10.82-15.1-11.41a24.07,24.07,0,0,0-11.59.12,23.62,23.62,0,0,0-13.41,9.12,23.18,23.18,0,0,0-4,11.69,24,24,0,0,0,.36,6.22c1.36,7,5.67,12,7.29,13.86a47.27,47.27,0,0,0,3.57,3.61,28.93,28.93,0,0,1,2.23,2.19Z" style="fill: #d9d9d9"/>
          </g>
        </g>
        <g>
          <path d="M0,119a2.61,2.61,0,0,1,.18-.52c4-5,4-5,9.77-2.22l18.56,9a23.52,23.52,0,0,0-1-3.11c-3.05-6.11-6.15-12.19-9.2-18.29-.76-1.52-1.07-3.14.52-4.27a3.2,3.2,0,0,1,2.57-.47c6.16,2.68,12.26,5.51,18.37,8.29a11,11,0,0,0,4.14,1.14c-1-2-1.89-4-2.93-6-2.35-4.49-4.61-9-7.19-13.37-1.47-2.48-1.34-4.27,1-6,.8-.58,1.48-1.31,2.61-2.33,1,1.85,2.06,3.41,2.86,5.07,4.27,8.81,8.45,17.66,12.75,26.46.78,1.59,1.1,2.79-.32,4.24s-3.07,2.27-5.12,1.35c-5.67-2.54-11.34-5.11-17-7.66-.29-.13-.6-.2-1.48-.49a17.81,17.81,0,0,0,.67,2.26c2.45,5.18,4.87,10.38,7.46,15.5,1,2,1.15,3.55-.59,5.3s-3,1.71-5,.74c-10-4.65-20-9.1-30.08-13.65A10.59,10.59,0,0,1,0,119Z" style="fill: #d9d9d9"/>
          <path d="M165.75,25.6c.67,3,1.15,5.56,1.82,8.08,1.06,4,2.26,8,3.35,12,.42,1.53-.43,2.26-1.81,2.75-1.8.63-3.64,1.47-4.54-1-1.11-3.12-2-6.3-2.94-9.48-1.55-5.5-3-11-4.51-16.54-.43-1.6-.83-3.22-1.11-4.85-.37-2.05,1.41-3.45,3.82-2.42a51.32,51.32,0,0,1,9,5.18c4.86,3.36,9.54,7,14.31,10.5a22.38,22.38,0,0,0,2.19,1.18c-1.26-4.71-2.32-8.76-3.42-12.8-.74-2.71-1.59-5.39-2.28-8.12-.29-1.15,0-2.11,1.48-2.35s3-.72,4.7-1.14c1.75,6.32,3.47,12.34,5.07,18.39q1.74,6.6,3.19,13.27c.23,1,.23,2.92-.24,3.13-1.21.54-3.08,1-4.08.37-4.09-2.38-8-5.1-11.89-7.79-3.56-2.46-7-5.05-10.56-7.57A12.6,12.6,0,0,0,165.75,25.6Z" style="fill: #d9d9d9"/>
          <path d="M337,45.12c-4.43-1-8.62-1.89-12.8-2.85-1.37-.32-2.69-.81-4.05-1.14s-1.73-1.37-1.43-2.66c1-4.19,1.84-8.41,2.92-12.57,1.4-5.44,3-10.84,4.44-16.27.94-3.49,1-3.67,4.6-2.93,5.75,1.16,11.58,2.19,16.58,5.55,5.93,4,8,10.14,6.66,17.13-1.15,6.2-4.15,10.83-9.65,13.64C342.09,44.15,339.46,44.45,337,45.12ZM326.4,35.76c2.57.72,4.71,1.34,6.86,1.93,6,1.64,11-.86,13.31-6.69s.44-12-4.71-14.39c-2.37-1.12-5.05-1.58-7.57-2.36-1.57-.48-2.43-.05-2.85,1.65C329.85,22.42,328.15,28.91,326.4,35.76Z" style="fill: #d9d9d9"/>
          <path d="M115.16,38.4l3.53,7.12,13.53-6.09a9.13,9.13,0,0,0,1.35-.61c1.75-1.15,3-1.34,4.06,1,1,2.19.71,3.58-1.51,4.62-4.06,1.89-8,4-12.14,5.78-2,.91-2.55,1.81-1.45,4,2.32,4.56,2.19,4.63,6.77,2.57,3.71-1.66,7.47-3.23,11.08-5.08,1.94-1,2.92-.66,3.88,1.25,1.75,3.45,1.83,3.39-1.66,5-6,2.78-12.1,5.43-18,8.47-2.55,1.32-3.58.47-4.57-1.65Q114.4,52.63,108.7,40.47c0-.08,0-.17-.07-.24-2.24-5.19-2.25-5.22,2.76-7.6,5.47-2.6,11-5.13,16.45-7.68,1.68-.78,3.14-1,4.11,1.12,1.08,2.38.77,3.94-1.39,5-4.27,2-8.6,4-12.89,6C116.86,37.38,116.11,37.86,115.16,38.4Z" style="fill: #d9d9d9"/>
          <path d="M515.44,118.63a3,3,0,0,1-.3.55c-4.88,5-4.53,3.68-7.83.07-2.82-3.08-5.66-6.13-8.41-9.27-1.24-1.42-2.19-1.36-3.51-.09-4.48,4.31-4.84,3-.54,8,2.53,2.88,5,5.83,7.56,8.67,1.17,1.28,1.38,2.28-.06,3.51s-2.58,2.37-4.24.62q-4.74-5-9.38-10.07a30.22,30.22,0,0,1-1.93-2.7c-2.07,1.85-3.62,3.21-5.13,4.6-1.13,1-.52,1.87.29,2.75,3.41,3.68,6.78,7.38,10.17,11.08,1,1.1,2.3,2,.47,3.66-2.9,2.6-3.54,2.89-5.33.94-4.85-5.28-9.6-10.66-14.42-16-1.26-1.39-1.25-2.46.21-3.77q11.54-10.4,22.95-20.91c1-.89,1.74-1.14,2.73-.06,5.43,5.89,10.89,11.75,16.33,17.64A3.5,3.5,0,0,1,515.44,118.63Z" style="fill: #d9d9d9"/>
          <path d="M300.69,36.78c-5,1.09-6.51.47-8.06-3.82-.8-2.21-2-3.19-4.28-3.34-4.07-.25-8.14-.62-12.18-1.14-2.51-.32-4.05.48-5,2.83C270,34,268,35.35,265,34.88c-2.29-.36-2.7-1-1.59-3.1C268.62,22,274,12.23,279.09,2.37c1.5-2.88,3.85-2.38,6.22-2.26,2.22.11,3.31,1.45,4,3.48,3.6,10.3,7.31,20.56,10.95,30.85A14.15,14.15,0,0,1,300.69,36.78ZM289,23.15c-1.81-5.26-3.35-9.73-4.88-14.2l-.81-.12c-2.14,4.05-4.29,8.09-6.35,12.18-.11.21.63,1.2,1,1.25C281.39,22.61,284.77,22.83,289,23.15Z" style="fill: #d9d9d9"/>
          <path d="M57,65.83C62.72,61.55,61.54,61,65.77,67c1.4,2,2.63,4.07,4.15,5.93a2.55,2.55,0,0,0,2.42.5c4-2.56,7.91-5.24,11.72-8.06.47-.35.53-2,.14-2.62-1.73-2.94-3.63-5.79-5.6-8.58-1.38-1.93-.45-2.92,1.09-4.06s3-1.34,4.24.43Q91,60.7,98.07,70.85c1.19,1.7,2.3,3.46,3.48,5.18,1.9,2.77-.91,3.32-2.18,4.54S97,81.46,96,79.89c-1.79-2.8-3.75-5.5-5.78-8.15-.42-.56-1.72-1.17-2.1-.94-4.57,2.84-9,5.84-13.8,9,2.39,3.44,4.53,6.48,6.63,9.55.82,1.2,2,2.26-.08,3.67-3.59,2.42-3.7,2.65-5.27.41-6-8.59-12-17.24-17.9-25.87A10.56,10.56,0,0,1,57,65.83Z" style="fill: #d9d9d9"/>
          <path d="M382.89,51.81c.73-.63,1.49-1.23,2.18-1.91,5.53-5.46,11-10.95,16.56-16.41,1.65-1.63,6.64-1,7.59,1,.21.47-.31,1.56-.81,2-7,6.83-14,13.61-21,20.39-.84.81-1.68,1.63-2.56,2.4-1.25,1.1-2.13,2.91-4.38,1.93-2.66-1.15-5.12-2.17-4.9-5.89.68-11.33,1.18-22.67,1.76-34a4.53,4.53,0,0,1,.41-1,36.5,36.5,0,0,1,4.63,2.2,3,3,0,0,1,1,2.28q-.18,9.65-.58,19.28c-.1,2.47-.39,4.93-.6,7.39Z" style="fill: #d9d9d9"/>
          <path d="M476.44,86c-1.08.23-2.12.73-3,.54A3.68,3.68,0,0,1,471,84.82c-1.75-4.46-7.1-8.81-11.44-9-5.68-.26-11.51,4.22-13.06,10-1.32,5,1.55,10.88,6.77,13.48a33.12,33.12,0,0,0,5.45,1.68c1.47.44,2.95,3.36,2.4,5.06-.68,2-2.36,1.7-4,1.42-8.37-1.49-13.91-6.49-16.81-14.26-2-5.45-.55-10.67,2.58-15.34a18.51,18.51,0,0,1,15.31-8.54c8-.29,15.14,4.9,18.17,12.4C476.86,82.93,476.44,84.5,476.44,86Z" style="fill: #d9d9d9"/>
          <path d="M434.45,49.8c-.3.61-.59,1.3-1,1.94Q425.56,65,417.64,78.24c-.76,1.27-1.53,1.6-3,.71-3.66-2.19-3.81-2.4-1.65-6,4.91-8.18,9.8-16.38,14.8-24.51.52-.85,1.87-2,2.51-1.83,1.42.4,2.65,1.53,3.93,2.4C434.37,49.11,434.36,49.46,434.45,49.8Z" style="fill: #d9d9d9"/>
        </g>
        <g>
          <path d="M65.9,570.92c4.53,1.35,6.09,4.66,6.24,9q.21,5.89.47,11.78a15.24,15.24,0,0,0,.46,2.08c3.21-1,6.28-1.84,9.32-2.81,2.29-.73,4.5-1.73,6.81-2.34,3-.8,4.45,1.83,6.16,3.47,1.45,1.39.09,2.75-.78,4-5.76,8-11.56,16-17.25,24-1,1.49-1.84,1.77-3.41.74-3.65-2.41-3.65-2.54-1.06-6.09,3.92-5.37,7.71-10.84,11.55-16.27l-.39-.73c-2,.51-4,1-6,1.54-3,.88-6,1.78-9,2.79-1.6.54-2.47,0-2.79-1.49a20.35,20.35,0,0,1-.51-4c-.07-4.16,0-8.31,0-12.46l-.77-.26c-.6.71-1.25,1.38-1.79,2.13-3.65,5-7.24,10-10.9,15-1.87,2.53-5,2.18-6.33-.72a2.46,2.46,0,0,1,.15-2.09c6.48-9,13-18,19.57-26.93A2.16,2.16,0,0,1,65.9,570.92Z" style="fill: #d9d9d9"/>
          <path d="M451,614.23c-5.08,4.33-5.14,4.38-8.35,0q-8.34-11.26-16.52-22.66c-.59-.81-1.4-2.47-1.17-2.69,1.13-1,2.58-2.29,3.92-2.29a28.77,28.77,0,0,1,7.28,1.32c6.33,1.66,12.63,3.45,19,5.15a12.62,12.62,0,0,0,2.56,0c-2.2-3.13-4.09-5.83-6-8.51s-3.85-5.46-5.86-8.12c-1.6-2.11,0-3,1.32-4.18s2.66-1.51,4,.28c6.24,8.56,12.56,17.07,18.78,25.65.37.52.38,2,0,2.2-1.42.88-3.1,2.13-4.57,2-2.93-.28-5.78-1.39-8.67-2.15q-8.43-2.2-16.88-4.38a14,14,0,0,0-2-.14C442.33,602.17,446.61,608.16,451,614.23Z" style="fill: #d9d9d9"/>
          <path d="M122.78,646.57c-2.13-.93-3.76-1.56-5.32-2.33-5.5-2.72-10.92-5.61-16.49-8.19-2-.91-2-2-1.21-3.52,4.57-9.16,9.26-18.26,13.72-27.46,1.07-2.2,2.28-2,4-1.15l17.27,8.38a5.49,5.49,0,0,1,.87.51c1,.68,2.79,1.53,2.71,2.06a11.26,11.26,0,0,1-2.06,4.46c-.25.36-1.72.17-2.45-.16-4.58-2.13-9.14-4.31-13.65-6.59-1.71-.87-2.65-.59-3.59,1.14-3.13,5.74-2.3,5,2,7.19,3.56,1.79,7.08,3.67,10.67,5.4,1.73.84,2.37,1.81,1.45,3.7s-1.87,3-4.17,1.88c-4.24-2.09-8.61-3.92-12.82-6.07-1.92-1-3-.58-3.7,1.29a19.47,19.47,0,0,1-1.25,3c-.9,1.47-.16,2.1,1,2.7,4.62,2.27,9.22,4.57,13.83,6.86,1.21.6,2.24,1.42,1.58,2.91A44.45,44.45,0,0,1,122.78,646.57Z" style="fill: #d9d9d9"/>
          <path d="M146.06,655.5c3.52-10.93,6.93-21.49,10.3-32.07.52-1.63,1.39-2,3-1.51,6.7,2.16,13.41,4.28,20.15,6.31,2,.61,3,1.6,2.36,3.79-.84,2.74-1.88,3.38-4.24,2.62-4.49-1.45-9-2.88-13.5-4.31-1.89-.6-3.25-.22-3.75,1.94-.36,1.6-.83,3.19-1.34,5.14l12.64,4a19.72,19.72,0,0,1,3.52,1.2c1.12.61,2.39,1.32,1.7,3.13-.59,1.54-1,3.09-3.19,2.48-4.3-1.19-8.58-2.45-12.91-3.52-1.27-.31-3.58-.48-3.85.06a22.16,22.16,0,0,0-1.59,6.16c0,.23,1,.78,1.57,1,4.8,1.59,9.61,3.19,14.46,4.66,2,.61,2.43,1.72,1.75,3.58-1.2,3.28-1.61,3.55-3.95,2.81-6.71-2.13-13.45-4.19-20.17-6.3C148.2,656.42,147.38,656,146.06,655.5Z" style="fill: #d9d9d9"/>
          <path d="M257.55,637.22c5.93.27,8.95,1.54,12.36,4.91,1.93,1.91,1.75,3.35-.86,3.84a9.15,9.15,0,0,1-5.2-.84c-3.64-1.73-7.28-2.78-11-.72a5,5,0,0,0-2.36,3.65c0,1,1.63,2.51,2.83,2.9,3.61,1.19,7.38,1.88,11,2.86,5.13,1.37,8.3,4.81,8.27,9.68a11.42,11.42,0,0,1-9.28,11.18,29.19,29.19,0,0,1-11.92,0,13.39,13.39,0,0,1-8.26-5.63c-.72-1-2-2.29-.31-3.39,1.51-1,3.29-2.69,5.11-.68,3.32,3.66,7.43,4.63,12.07,4a8.88,8.88,0,0,0,3.48-1.22c2.92-1.87,2.87-5.9-.31-7.29-3-1.31-6.36-1.84-9.55-2.78a35.11,35.11,0,0,1-5.15-1.76c-3.71-1.76-4.87-5.13-4.8-8.89a9.52,9.52,0,0,1,6.59-8.56C252.72,637.81,254.42,637.07,257.55,637.22Z" style="fill: #d9d9d9"/>
          <path d="M403.46,641.51c-6.35-.26-10.4-2.2-12.85-6.52-3.61-6.36-7-12.85-10.37-19.33-1.31-2.52.88-3,2.45-3.9s2.57-1,3.52,1q4.21,8.63,8.8,17.06c2.88,5.29,7.45,6.57,12.68,3.81,4.57-2.41,5.8-6.67,3.31-12s-5.21-10.78-7.8-16.18c-1.38-2.87.17-5.25,3.4-5.1a2.21,2.21,0,0,1,1.51,1c4.13,7.46,8.83,14.72,10.6,23.19,1,4.66-1.35,10.61-7,13.88C408.8,640.13,405.38,640.83,403.46,641.51Z" style="fill: #d9d9d9"/>
          <path d="M362.43,619.84c2.91,4.16,2.29,6.24-1.86,7.59-3.93,1.28-7.89,2.5-11.84,3.74-1.43.45-2.13,1.19-1.41,2.8a34.87,34.87,0,0,1,1.42,4c1.2,3.81,1.3,3.15,4.61,2.32,3.61-.91,7.09-2.31,10.65-3.42a3.85,3.85,0,0,1,4.62,4.62c-.13.44-.92.8-1.47,1-4.93,1.69-9.87,3.32-15.24,5.12,1.24,4.23,2.44,8.3,3.65,12.4-.5.24-.79.39-1.09.52-4.9,2.08-5.06,2-6.67-3.15-2.7-8.54-5.5-17-8.26-25.55-.94-2.9-.64-3.9,2.17-4.9C348.58,624.46,355.51,622.19,362.43,619.84Z" style="fill: #d9d9d9"/>
          <path d="M210.18,670.82c-1,0-1.88.07-2.78,0-2.71-.24-3.16-.92-2.8-3.57.75-5.61,1.4-11.24,2.12-16.85q.51-4,1.11-7.93c.18-1.17-.05-1.88-1.4-2.11-3-.52-6-1.17-9.2-1.8,0-1,0-1.7,0-2.43.24-2.67,1.32-3.47,4-3.08,6.42,1,12.85,1.86,19.28,2.81a23.36,23.36,0,0,1,4.88,1c.78.3,1.81,1.57,1.7,2.21-.24,1.24.35,3.45-2,3.4a39.26,39.26,0,0,1-6.93-.72c-1.89-.39-3.09-.19-3.43,1.92-.43,2.71-.92,5.41-1.3,8.13-.71,5.11-1.32,10.24-2.06,15.35A24.62,24.62,0,0,1,210.18,670.82Z" style="fill: #d9d9d9"/>
        </g>
      </g>
    </g>
  </g>
</svg>
