<svg xmlns="http://www.w3.org/2000/svg" viewBox="0 0 722.02 360.33">
  <title>node-color</title>
  <g id="aae8df06-4d69-40d9-8667-6caf3565fcd5" data-name="Calque 2">
    <g id="ba69deef-3db9-40eb-9ad7-c3d755a9c895" data-name="Calque 1">
      <g>
        <path d="M406.81,263.58h-91a30.82,30.82,0,0,1-30.78-30.78v-112A30.82,30.82,0,0,1,315.85,90h91a30.81,30.81,0,0,1,30.77,30.78v112A30.81,30.81,0,0,1,406.81,263.58ZM315.85,115a5.78,5.78,0,0,0-5.78,5.78v112a5.78,5.78,0,0,0,5.78,5.78h91a5.78,5.78,0,0,0,5.77-5.78v-112a5.78,5.78,0,0,0-5.77-5.78Z" style="fill: #dbc4a2"/>
        <path d="M647.79,355.77c-12.29,0-27.52-2.57-47.26-7.76-47.62-12.53-101.59-26.73-131.17-67.71-10.28-14.25-11.88-35.81-12.74-47.39-.11-1.36-.19-2.56-.29-3.56a12.5,12.5,0,0,1,24.9-2.31c.1,1.13.2,2.48.32,4,.63,8.47,1.93,26.09,8.08,34.61,24.34,33.72,71.58,46.14,117.26,58.16,28.84,7.59,45.84,8.91,55.11,4.31,22.89-11.39,34.65-37.78,35-78.44,0-1.44,0-2.49.06-3.38L695.37,106.9c0-.67,0-1.45-.06-2.57-.45-39.25-11.95-64.95-33.23-74.32-29.83-13.13-65.1,2.33-96.22,16-17.07,7.49-73.47,35.46-82.34,81A12.5,12.5,0,1,1,459,122.2c10.89-55.89,71.35-87.92,96.84-99.1,34.06-14.94,76.45-33.53,116.33-16,21.57,9.5,47.43,34,48.16,96.92,0,.68,0,1.21,0,1.55l0,.72L722,247l0,.53c0,.29,0,1.44,0,2.35-.06,7.9-.2,26.39-6,46-7.61,25.87-22,44.24-42.84,54.6C666.12,354,658,355.77,647.79,355.77Z" style="fill: #dbc4a2"/>
        <path d="M74.23,360.33c-10.17,0-18.32-1.76-25.34-5.25-20.81-10.36-35.23-28.73-42.84-54.6-5.78-19.65-5.92-38.14-6-46,0-.91,0-2.06,0-2.39l0-.54V251L1.66,110.46l0-.31c0-.35,0-.87,0-1.55.73-62.9,26.6-87.42,48.16-96.92,39.22-17.26,93.68.25,128.41,20.49,43,25.07,91.77,53.49,87.78,102.5a12.5,12.5,0,1,1-24.91-2c2.51-30.92-29.69-52.19-75.46-78.87C133.7,35.13,88.59,22,60,34.57c-21.29,9.37-32.79,35.07-33.24,74.32,0,1.12,0,1.9-.06,2.57L25,250.88c0,.89,0,1.94.06,3.38.3,40.66,12.06,67.05,35,78.44,9.27,4.6,26.27,3.28,55.11-4.31,45.68-12,92.92-24.44,117.26-58.16,6.15-8.52,7.46-26.14,8.09-34.61.11-1.54.21-2.89.32-4a12.5,12.5,0,0,1,24.89,2.31c-.09,1-.18,2.2-.28,3.56-.86,11.58-2.46,33.14-12.75,47.39-29.58,41-83.55,55.18-131.17,67.71C101.75,357.76,86.52,360.33,74.23,360.33Z" style="fill: #dbc4a2"/>
        <path d="M473,174.42c-4.95,0-9.92-.21-14.88-.63a12.5,12.5,0,0,1,2.09-24.91,151.34,151.34,0,0,0,55.35-5.58,151.38,151.38,0,0,0,49.25-24.89A12.5,12.5,0,1,1,580,138.31a176.13,176.13,0,0,1-57.37,29A176.17,176.17,0,0,1,473,174.42Z" style="fill: #dbc4a2"/>
        <path d="M548.19,235.4a12.47,12.47,0,0,1-7.68-2.65,101.82,101.82,0,0,0-31.33-16.65,103.6,103.6,0,0,0-49-3.42A12.5,12.5,0,1,1,456,188a128.56,128.56,0,0,1,60.91,4.28,126.49,126.49,0,0,1,39,20.72,12.5,12.5,0,0,1-7.69,22.36Z" style="fill: #dbc4a2"/>
        <g>
          <path d="M245.56,176.66A175.81,175.81,0,0,1,196,169.53a175.84,175.84,0,0,1-57.37-29,12.5,12.5,0,1,1,15.14-19.89A151.25,151.25,0,0,0,203,145.54a151.35,151.35,0,0,0,55.35,5.59A12.5,12.5,0,1,1,260.44,176C255.48,176.45,250.51,176.66,245.56,176.66Z" style="fill: #dbc4a2"/>
          <path d="M170.37,237.64a12.5,12.5,0,0,1-7.7-22.36,126.87,126.87,0,0,1,39-20.72,128.56,128.56,0,0,1,60.91-4.28,12.5,12.5,0,0,1-4.2,24.65,103.47,103.47,0,0,0-49,3.41A102,102,0,0,0,178,235,12.43,12.43,0,0,1,170.37,237.64Z" style="fill: #dbc4a2"/>
        </g>
      </g>
    </g>
  </g>
</svg>
